<?xml version="1.0" encoding="utf-8"?>
<!-- Generator: Adobe Illustrator 23.1.0, SVG Export Plug-In . SVG Version: 6.00 Build 0)  -->
<svg version="1.1" id="Capa_1" xmlns="http://www.w3.org/2000/svg" xmlns:xlink="http://www.w3.org/1999/xlink" x="0px" y="0px"
	 viewBox="0 0 292.7 292.7" enable-background="new 0 0 292.7 292.7" xml:space="preserve">
<path fill="#7D8975" stroke="#7D8975" stroke-width="7.2313" stroke-miterlimit="10" d="M266.9,272.4H26.4c-3.1,0-5.7-2.6-5.7-5.7
	V26.3c0-3.1,2.6-5.7,5.7-5.7h240.5c3.1,0,5.7,2.6,5.7,5.7v240.5C272.6,269.9,270,272.4,266.9,272.4z"/>
<path fill="#FFFFFF" d="M83.7,240.5h64.6v-11.7H83.7c-3.2,0-5.9-2.6-5.9-5.9V70.1c0-3.2,2.6-5.9,5.9-5.9h76.4v29.4
	c0,9.7,7.9,17.6,17.6,17.6h29.4v23.5h11.7v-24.5c0-4.7-1.9-9.2-5.2-12.5c0,0,0,0,0,0L170.9,55c-1.1-1.1-2.6-1.5-4.1-1.5
	c-1.8-0.6-3.7-1-5.7-1H83.7c-9.7,0-17.6,7.9-17.6,17.6v152.7C66.1,232.6,73.9,240.5,83.7,240.5z M171.8,72.5l26.9,26.9h-21.1
	c-3.2,0-5.9-2.6-5.9-5.9V72.5z"/>
<path fill="#BFD3B4" d="M240.4,156.5l-10.7-17.3c-1.3-2.1-3.3-3.5-5.6-4.1c-2.3-0.5-4.8-0.2-6.8,1.1l-11.6,7.1c-1.7-1-4-1.1-5.7-0.1
	l-5,3.1c-2,1.2-2.8,3.6-2.4,5.8l-56,34.5c-0.2,0.1-0.4,0.2-0.4,0.4c0,0,0,0,0,0.1c-0.2,0.1-0.2,0.3-0.4,0.4l0,0l-13.9,22.6l0,0
	l-1.5,2.4l-1.5,2.4c0,0.1-0.1,0.3-0.2,0.3c-0.6,1.4-0.6,2.6-0.4,3.4c0.1,0.3,0.2,0.6,0.3,0.8c0.6,1.2,1.8,2.1,3.2,2.4l0,0
	c0.1,0,0.3,0.1,0.4,0.1c0.3,0.1,0.4,0.1,0.6,0.1l0,0l0,0c0.1,0,0.3,0.1,0.3-0.1l3.9-0.3l28-2.4l0,0c0.5,0,0.8-0.1,1.1-0.3l56.1-34.6
	c0.5,0.4,1.1,0.6,1.8,0.7c1.4,0.3,2.9,0.1,4.1-0.7l5-3.1c2-1.2,2.8-3.3,2.5-5.3l11.6-7.1C241.7,166.4,243,160.7,240.4,156.5z
	 M156,212.9l-5.6-9.1l53.3-33l5.6,9.1L156,212.9z M200.8,166.1l-53.3,33l-5.6-9.2l53.3-32.9L200.8,166.1z M130.3,215.9l-2.7-4.5
	l10.6-17.3l6.2,10l0,0l0,0l6.2,10L130.3,215.9z M216.6,179.3c-0.1-0.2-0.1-0.3-0.2-0.4l-17-27.8c-0.2-0.4-0.3-0.5-0.6-0.7l4-2.6
	l0.2,0.4l0,0l17.3,28c0.1,0.2,0.2,0.4,0.4,0.4L216.6,179.3z M234.6,164.4l-11.2,6.9L209,147.8l11.2-6.9c1.6-1,3.9-0.4,4.9,1.2
	l10.7,17.3C236.7,161.1,236.2,163.2,234.6,164.4z"/>
</svg>
